<?xml version="1.0" encoding="utf-8"?>
<!-- Generator: Adobe Illustrator 26.0.1, SVG Export Plug-In . SVG Version: 6.00 Build 0)  -->
<svg version="1.1" id="Layer_1" xmlns="http://www.w3.org/2000/svg" xmlns:xlink="http://www.w3.org/1999/xlink" x="0px" y="0px"
	 viewBox="0 0 1371.3 645.9" style="enable-background:new 0 0 1371.3 645.9;" xml:space="preserve">
<style type="text/css">
	.st0{fill-rule:evenodd;clip-rule:evenodd;fill:#FFFFFF;}
	.st1{fill:#FFFFFF;}
	.st2{font-family:'BrandonGrotesque-Bold';}
	.st3{font-size:70px;}
	.st4{letter-spacing:10;}
</style>
<path class="st0" d="M784.1,376.7c-0.3,1.2-1.3,1.9-2.5,1.9c-0.2,0-0.4,0-0.6-0.1c-3.8-0.8-43.9-0.4-77.5,0.1h0
	c-1.4,0-2.5-1.1-2.5-2.5c0-1.4,1.1-2.6,2.5-2.6c14.2-0.2,74.2-1.1,78.8,0.1C783.6,373.9,784.4,375.3,784.1,376.7 M889.6,331.7
	c0,1.4-1.1,2.5-2.5,2.5c-1.4,0-2.5-1.1-2.5-2.5c0-109.6-89.2-198.9-198.8-198.9c-1.4,0-2.5-1.1-2.5-2.5c0-1.4,1.1-2.5,2.5-2.5
	C798.1,127.7,889.6,219.2,889.6,331.7 M850.8,329.9c0,1.4-1.1,2.5-2.5,2.5c-1.4,0-2.5-1.1-2.5-2.5c0-87.3-71-158.4-158.4-158.4
	c-1.4,0-2.5-1.1-2.5-2.5c0-1.4,1.1-2.5,2.5-2.5C777.5,166.4,850.8,239.8,850.8,329.9 M673.9,621.6c-71.1,0-128.9-57.8-128.9-128.9
	V349.8h108c0,11.5,9.4,20.9,20.9,20.9c11.5,0,20.9-9.4,20.9-20.9h108v142.9C802.8,563.8,744.9,621.6,673.9,621.6 M671.3,210.9v34.8
	c-10.3,1.3-18.4,10-18.4,20.7v78.4H545v-5.1C545,269.5,601.4,212.2,671.3,210.9 M673.9,255.5c6,0,10.8,4.8,10.8,10.8v83.5
	c0,6-4.8,10.8-10.8,10.8s-10.8-4.8-10.8-10.8v-83.5C663.1,260.4,667.9,255.5,673.9,255.5 M673.9,200.7c-76.6,0-139,62.4-139,139v153
	c0,76.6,62.4,139,139,139c76.6,0,139-62.4,139-139v-153C812.9,263.1,750.5,200.7,673.9,200.7"/>
<path class="st0" d="M22.2,326.1c0,1.4-1.1,2.5-2.5,2.5c-1.4,0-2.5-1.1-2.5-2.5c0-112.4,91.5-203.9,203.9-203.9
	c1.4,0,2.5,1.1,2.5,2.5c0,1.4-1.1,2.5-2.5,2.5C111.4,127.2,22.2,216.4,22.2,326.1L22.2,326.1z M207.4,370.5c0,1.4-1.1,2.5-2.5,2.5h0
	c-33.6-0.4-73.7-0.8-77.5-0.1c-1.3,0.3-2.7-0.6-3-1.9c-0.3-1.3,0.5-2.7,1.8-3c4.6-1.1,64.6-0.3,78.8-0.1
	C206.3,368,207.5,369.1,207.4,370.5L207.4,370.5z M62.7,324.3c0,1.4-1.1,2.5-2.5,2.5c-1.4,0-2.5-1.1-2.5-2.5
	c0-90.1,73.3-163.4,163.4-163.4c1.4,0,2.5,1.1,2.5,2.5c0,1.4-1.1,2.5-2.5,2.5C133.7,165.9,62.6,237,62.7,324.3L62.7,324.3z
	 M363.5,339.2h-108v-78.4c0-10.7-8.1-19.4-18.4-20.7v-34.8c69.9,1.4,126.4,58.6,126.4,128.8L363.5,339.2z M234.6,616
	c-71.1,0-128.9-57.8-128.9-128.9V344.3h108c0,11.5,9.4,20.9,20.9,20.9c11.5,0,20.9-9.4,20.9-20.9h108v142.9
	C363.5,558.2,305.6,616,234.6,616L234.6,616z M223.8,260.8c0-6,4.8-10.8,10.8-10.8s10.8,4.8,10.8,10.8v83.5c0,6-4.8,10.8-10.8,10.8
	s-10.8-4.8-10.8-10.8V260.8z M234.6,195.1c-76.6,0-139,62.4-139,139v153c0,76.7,62.4,139,139,139c76.7,0,139-62.4,139-139v-153
	C373.6,257.5,311.2,195.1,234.6,195.1z"/>
<g>
	<g>
		<g>
			<path class="st1" d="M1216.3,368.8h-1.1c-11.4,0-20.6-9.3-20.6-20.6v-83.7c0-11.4,9.3-20.6,20.6-20.6h1.1
				c11.4,0,20.6,9.3,20.6,20.6v83.7C1236.9,359.6,1227.7,368.8,1216.3,368.8z M1215.2,251.8c-7,0-12.6,5.7-12.6,12.6v83.7
				c0,7,5.7,12.6,12.6,12.6h1.1c7,0,12.6-5.7,12.6-12.6v-83.7c0-7-5.7-12.6-12.6-12.6H1215.2z"/>
		</g>
		<g>
			<g>
				<path class="st1" d="M1212.1,206.5c0,12.8,0,25.6,0,38.5c0,4.6,7.2,4.6,7.2,0c0-12.8,0-25.6,0-38.5
					C1219.3,201.9,1212.1,201.9,1212.1,206.5L1212.1,206.5z"/>
			</g>
		</g>
		<g>
			<path class="st1" d="M1215.7,626.1c-77.6,0-140.8-63.1-140.8-140.8V336c0-77.6,63.1-140.8,140.8-140.8
				c77.6,0,140.8,63.1,140.8,140.8v149.3C1356.5,562.9,1293.4,626.1,1215.7,626.1z M1215.7,205.2c-72.1,0-130.8,58.7-130.8,130.8
				v149.3c0,72.1,58.7,130.8,130.8,130.8h0c72.1,0,130.8-58.7,130.8-130.8V336C1346.5,263.9,1287.9,205.2,1215.7,205.2z"/>
		</g>
		<g>
			<g>
				<path class="st1" d="M1197.6,350.4c-37.8,0-75.6,0-113.5,0c-4.5,0-4.5,7,0,7c37.8,0,75.6,0,113.5,0
					C1202.1,357.4,1202.1,350.4,1197.6,350.4L1197.6,350.4z"/>
			</g>
		</g>
		<g>
			<g>
				<path class="st1" d="M1234.7,356.4c36.8,0,73.6,0,110.4,0c4.5,0,4.5-7,0-7c-36.8,0-73.6,0-110.4,0
					C1230.2,349.4,1230.2,356.4,1234.7,356.4L1234.7,356.4z"/>
			</g>
		</g>
		<g>
			<g>
				<path class="st1" d="M1252.3,381.2c19.3,0,38.5,0,57.8,0c5.5,0,11,0,16.4,0c3.2,0,3.2-5,0-5c-19.3,0-38.5,0-57.8,0
					c-5.5,0-11,0-16.4,0C1249.1,376.2,1249,381.2,1252.3,381.2L1252.3,381.2z"/>
			</g>
		</g>
	</g>
	<g>
		<g>
			<path class="st1" d="M1002,288.1c0,77.5,0,154.9,0,232.4c0,4.5,7,4.5,7,0c0-77.5,0-154.9,0-232.4
				C1009,283.6,1002,283.6,1002,288.1L1002,288.1z"/>
		</g>
	</g>
	<g>
		<g>
			<g>
				<path class="st1" d="M1007.9,523.5c-9.8-9.8-19.6-19.6-29.4-29.4c-3.2-3.2-8.1,1.8-4.9,4.9c9.8,9.8,19.6,19.6,29.4,29.4
					C1006.2,531.6,1011.1,526.7,1007.9,523.5L1007.9,523.5z"/>
			</g>
		</g>
		<g>
			<g>
				<path class="st1" d="M1007.9,528.4c9.8-9.8,19.6-19.6,29.4-29.4c3.2-3.2-1.8-8.1-4.9-4.9c-9.8,9.8-19.6,19.6-29.4,29.4
					C999.8,526.7,1004.8,531.6,1007.9,528.4L1007.9,528.4z"/>
			</g>
		</g>
	</g>
	<g>
		<g>
			<g>
				<path class="st1" d="M1003,287.6c9.8,9.8,19.6,19.6,29.4,29.4c3.2,3.2,8.1-1.8,4.9-4.9c-9.8-9.8-19.6-19.6-29.4-29.4
					C1004.8,279.5,999.8,284.4,1003,287.6L1003,287.6z"/>
			</g>
		</g>
		<g>
			<g>
				<path class="st1" d="M1003,282.7c-9.8,9.8-19.6,19.6-29.4,29.4c-3.2,3.2,1.8,8.1,4.9,4.9c9.8-9.8,19.6-19.6,29.4-29.4
					C1011.1,284.4,1006.2,279.5,1003,282.7L1003,282.7z"/>
			</g>
		</g>
	</g>
	<g>
		<path class="st1" d="M979.3,276.1c-0.3,0-0.6-0.1-0.9-0.3c-0.7-0.5-0.8-1.4-0.3-2.1c8.8-11.7,18.1-17.5,27.8-17.1
			c15.4,0.6,25.8,16.5,26.2,17.2c0.4,0.7,0.2,1.6-0.5,2.1c-0.7,0.4-1.6,0.2-2.1-0.5c-0.1-0.2-9.9-15.3-23.8-15.8
			c-8.6-0.3-17.1,5-25.3,15.9C980.2,275.9,979.8,276.1,979.3,276.1z"/>
	</g>
	<g>
		<path class="st1" d="M975.9,265.4c-0.3,0-0.6-0.1-0.9-0.3c-0.7-0.5-0.8-1.4-0.3-2.1c8.4-11.3,18.1-17.2,28.6-17.7
			c18.2-0.8,32.2,14.8,32.8,15.5c0.6,0.6,0.5,1.6-0.1,2.1c-0.6,0.6-1.6,0.5-2.1-0.1c-0.1-0.2-13.8-15.2-30.5-14.5
			c-9.6,0.4-18.5,6-26.3,16.5C976.8,265.1,976.4,265.4,975.9,265.4z"/>
	</g>
	<g>
		<path class="st1" d="M1005.5,552c-0.3,0-0.6,0-0.9,0c-15.4-0.6-25.8-16.5-26.2-17.2c-0.4-0.7-0.2-1.6,0.5-2.1
			c0.7-0.4,1.6-0.2,2.1,0.5c0.1,0.2,9.9,15.3,23.8,15.8c8.6,0.3,17.1-5,25.3-15.9c0.5-0.7,1.4-0.8,2.1-0.3c0.7,0.5,0.8,1.4,0.3,2.1
			C1023.9,546.2,1014.9,552,1005.5,552z"/>
	</g>
	<g>
		<path class="st1" d="M1005.9,563.2c-17.5,0-30.9-14.9-31.5-15.5c-0.6-0.6-0.5-1.6,0.1-2.1c0.6-0.6,1.6-0.5,2.1,0.1
			c0.1,0.2,13.8,15.2,30.5,14.5c9.6-0.4,18.5-6,26.3-16.5c0.5-0.7,1.4-0.8,2.1-0.3c0.7,0.5,0.8,1.4,0.3,2.1
			c-8.4,11.3-18.1,17.2-28.6,17.7C1006.8,563.2,1006.3,563.2,1005.9,563.2z"/>
	</g>
</g>
<text transform="matrix(1 0 0 1 117.3077 69.3372)" class="st1 st2 st3 st4">MOVE</text>
<text transform="matrix(1 0 0 1 592.0009 68.6377)" class="st1 st2 st3 st4">PAN</text>
<text transform="matrix(1 0 0 1 1091.0562 69.3372)" class="st1 st2 st3 st4">ZOOM</text>
</svg>
